<svg xmlns="http://www.w3.org/2000/svg" xmlns:xlink="http://www.w3.org/1999/xlink" width="1512" zoomAndPan="magnify" viewBox="0 0 1134 736.499978" height="982" preserveAspectRatio="xMidYMid meet" version="1.0"><defs><clipPath id="142c26fdae"><path d="M 451.046875 338 L 682.640625 338 L 682.640625 529.890625 L 451.046875 529.890625 Z M 451.046875 338 " clip-rule="nonzero"/></clipPath><clipPath id="1ce92c5f4b"><path d="M 467 206.109375 L 667 206.109375 L 667 471 L 467 471 Z M 467 206.109375 " clip-rule="nonzero"/></clipPath></defs><g clip-path="url(#142c26fdae)"><path fill="#ffffff" d="M 665.316406 529.886719 L 468.671875 529.886719 C 458.980469 529.886719 451.121094 522.03125 451.121094 512.335938 L 451.121094 356.089844 C 451.121094 346.394531 458.980469 338.539062 468.671875 338.539062 L 665.316406 338.539062 C 675.011719 338.539062 682.867188 346.394531 682.867188 356.089844 L 682.867188 512.335938 C 682.867188 522.03125 675.011719 529.886719 665.316406 529.886719 " fill-opacity="1" fill-rule="nonzero"/></g><g clip-path="url(#1ce92c5f4b)"><path fill="#ffffff" d="M 500.78125 437.859375 L 633.207031 437.859375 L 633.207031 305.433594 C 633.207031 268.921875 603.503906 239.21875 566.996094 239.21875 C 530.484375 239.21875 500.78125 268.921875 500.78125 305.433594 Z M 634.714844 470.964844 L 499.277344 470.964844 C 481.851562 470.964844 467.675781 456.789062 467.675781 439.363281 L 467.675781 305.433594 C 467.675781 250.667969 512.230469 206.113281 566.996094 206.113281 C 621.761719 206.113281 666.3125 250.667969 666.3125 305.433594 L 666.3125 439.363281 C 666.3125 456.789062 652.136719 470.964844 634.714844 470.964844 " fill-opacity="1" fill-rule="nonzero"/></g></svg>