<svg xmlns="http://www.w3.org/2000/svg" xmlns:xlink="http://www.w3.org/1999/xlink" width="1512" zoomAndPan="magnify" viewBox="0 0 1134 736.499978" height="982" preserveAspectRatio="xMidYMid meet" version="1.0"><defs><clipPath id="d1f75ca82a"><path d="M 497 206.109375 L 636 206.109375 L 636 345 L 497 345 Z M 497 206.109375 " clip-rule="nonzero"/></clipPath><clipPath id="e35e83692d"><path d="M 446.90625 352 L 686.742188 352 L 686.742188 529.890625 L 446.90625 529.890625 Z M 446.90625 352 " clip-rule="nonzero"/></clipPath></defs><g clip-path="url(#d1f75ca82a)"><path fill="#000000" d="M 635.855469 275.269531 C 635.855469 237.15625 604.886719 206.140625 566.824219 206.140625 C 528.765625 206.140625 497.792969 237.15625 497.792969 275.269531 C 497.792969 313.28125 528.765625 344.296875 566.824219 344.296875 C 604.886719 344.296875 635.855469 313.28125 635.855469 275.269531 Z M 635.855469 275.269531 " fill-opacity="1" fill-rule="nonzero"/></g><g clip-path="url(#e35e83692d)"><path fill="#000000" d="M 446.90625 472.425781 L 446.90625 493.308594 C 446.90625 513.464844 463.277344 529.859375 483.402344 529.859375 L 650.246094 529.859375 C 670.371094 529.859375 686.742188 513.464844 686.742188 493.308594 L 686.742188 472.425781 C 686.742188 406.21875 632.9375 352.335938 566.824219 352.335938 C 500.714844 352.335938 446.90625 406.21875 446.90625 472.425781 Z M 446.90625 472.425781 " fill-opacity="1" fill-rule="nonzero"/></g></svg>