<svg xmlns="http://www.w3.org/2000/svg" xmlns:xlink="http://www.w3.org/1999/xlink" width="1512" zoomAndPan="magnify" viewBox="0 0 1134 736.499978" height="982" preserveAspectRatio="xMidYMid meet" version="1.0"><defs><clipPath id="90828891b3"><path d="M 451.046875 338 L 682.640625 338 L 682.640625 529.890625 L 451.046875 529.890625 Z M 451.046875 338 " clip-rule="nonzero"/></clipPath><clipPath id="472516420a"><path d="M 467 206.109375 L 667 206.109375 L 667 471 L 467 471 Z M 467 206.109375 " clip-rule="nonzero"/></clipPath></defs><g clip-path="url(#90828891b3)"><path fill="#000000" d="M 665.035156 529.886719 L 468.648438 529.886719 C 458.96875 529.886719 451.121094 522.03125 451.121094 512.335938 L 451.121094 356.089844 C 451.121094 346.394531 458.96875 338.539062 468.648438 338.539062 L 665.035156 338.539062 C 674.714844 338.539062 682.5625 346.394531 682.5625 356.089844 L 682.5625 512.335938 C 682.5625 522.03125 674.714844 529.886719 665.035156 529.886719 " fill-opacity="1" fill-rule="nonzero"/></g><g clip-path="url(#472516420a)"><path fill="#000000" d="M 500.714844 437.859375 L 632.96875 437.859375 L 632.96875 305.433594 C 632.96875 268.921875 603.304688 239.21875 566.84375 239.21875 C 530.378906 239.21875 500.714844 268.921875 500.714844 305.433594 Z M 634.472656 470.964844 L 499.210938 470.964844 C 481.8125 470.964844 467.652344 456.789062 467.652344 439.363281 L 467.652344 305.433594 C 467.652344 250.667969 512.148438 206.113281 566.84375 206.113281 C 621.535156 206.113281 666.03125 250.667969 666.03125 305.433594 L 666.03125 439.363281 C 666.03125 456.789062 651.875 470.964844 634.472656 470.964844 " fill-opacity="1" fill-rule="nonzero"/></g></svg>