<svg xmlns="http://www.w3.org/2000/svg" xmlns:xlink="http://www.w3.org/1999/xlink" width="1512" zoomAndPan="magnify" viewBox="0 0 1134 736.499978" height="982" preserveAspectRatio="xMidYMid meet" version="1.0"><defs><clipPath id="c86cfbdf66"><path d="M 497 206.109375 L 637 206.109375 L 637 345 L 497 345 Z M 497 206.109375 " clip-rule="nonzero"/></clipPath><clipPath id="d5dffd1012"><path d="M 446.90625 352 L 686.742188 352 L 686.742188 529.890625 L 446.90625 529.890625 Z M 446.90625 352 " clip-rule="nonzero"/></clipPath></defs><g clip-path="url(#c86cfbdf66)"><path fill="#ffffff" d="M 636.125 275.269531 C 636.125 237.15625 605.109375 206.140625 566.996094 206.140625 C 528.878906 206.140625 497.867188 237.15625 497.867188 275.269531 C 497.867188 313.28125 528.878906 344.296875 566.996094 344.296875 C 605.109375 344.296875 636.125 313.28125 636.125 275.269531 Z M 636.125 275.269531 " fill-opacity="1" fill-rule="nonzero"/></g><g clip-path="url(#d5dffd1012)"><path fill="#ffffff" d="M 446.90625 472.425781 L 446.90625 493.308594 C 446.90625 513.464844 463.300781 529.859375 483.457031 529.859375 L 650.535156 529.859375 C 670.6875 529.859375 687.082031 513.464844 687.082031 493.308594 L 687.082031 472.425781 C 687.082031 406.21875 633.199219 352.335938 566.996094 352.335938 C 500.789062 352.335938 446.90625 406.21875 446.90625 472.425781 Z M 446.90625 472.425781 " fill-opacity="1" fill-rule="nonzero"/></g></svg>