<svg xmlns="http://www.w3.org/2000/svg" xmlns:xlink="http://www.w3.org/1999/xlink" width="1512" zoomAndPan="magnify" viewBox="0 0 1134 736.499978" height="982" preserveAspectRatio="xMidYMid meet" version="1.0"><defs><clipPath id="40acd025e7"><path d="M 405.109375 206.109375 L 728.890625 206.109375 L 728.890625 529.890625 L 405.109375 529.890625 Z M 405.109375 206.109375 " clip-rule="nonzero"/></clipPath></defs><g clip-path="url(#40acd025e7)"><path fill="#ffffff" d="M 567 206.109375 C 564.351562 206.109375 561.703125 206.175781 559.054688 206.304688 C 556.410156 206.433594 553.769531 206.628906 551.132812 206.890625 C 548.496094 207.148438 545.867188 207.472656 543.246094 207.863281 C 540.625 208.25 538.015625 208.703125 535.417969 209.222656 C 532.816406 209.738281 530.234375 210.316406 527.664062 210.960938 C 525.09375 211.605469 522.542969 212.3125 520.003906 213.082031 C 517.46875 213.851562 514.957031 214.679688 512.460938 215.574219 C 509.964844 216.464844 507.496094 217.417969 505.046875 218.433594 C 502.597656 219.445312 500.179688 220.519531 497.78125 221.652344 C 495.386719 222.785156 493.023438 223.976562 490.683594 225.226562 C 488.347656 226.476562 486.042969 227.78125 483.773438 229.140625 C 481.5 230.503906 479.261719 231.921875 477.058594 233.394531 C 474.855469 234.867188 472.691406 236.390625 470.5625 237.96875 C 468.433594 239.546875 466.347656 241.175781 464.296875 242.855469 C 462.25 244.539062 460.246094 246.269531 458.28125 248.046875 C 456.316406 249.828125 454.398438 251.652344 452.527344 253.527344 C 450.652344 255.398438 448.828125 257.316406 447.046875 259.28125 C 445.269531 261.246094 443.539062 263.25 441.855469 265.296875 C 440.175781 267.347656 438.546875 269.433594 436.96875 271.5625 C 435.390625 273.691406 433.867188 275.855469 432.394531 278.058594 C 430.921875 280.261719 429.503906 282.5 428.140625 284.773438 C 426.78125 287.042969 425.476562 289.347656 424.226562 291.6875 C 422.976562 294.023438 421.785156 296.386719 420.652344 298.785156 C 419.519531 301.179688 418.445312 303.601562 417.433594 306.046875 C 416.417969 308.496094 415.464844 310.964844 414.574219 313.460938 C 413.679688 315.957031 412.851562 318.46875 412.082031 321.007812 C 411.3125 323.542969 410.605469 326.09375 409.960938 328.664062 C 409.316406 331.234375 408.738281 333.820312 408.21875 336.417969 C 407.703125 339.015625 407.25 341.625 406.863281 344.246094 C 406.472656 346.867188 406.148438 349.496094 405.890625 352.132812 C 405.628906 354.769531 405.433594 357.410156 405.304688 360.054688 C 405.175781 362.703125 405.109375 365.351562 405.109375 368 C 405.109375 370.648438 405.175781 373.296875 405.304688 375.945312 C 405.433594 378.589844 405.628906 381.230469 405.890625 383.867188 C 406.148438 386.503906 406.472656 389.132812 406.863281 391.753906 C 407.25 394.375 407.703125 396.984375 408.21875 399.582031 C 408.738281 402.183594 409.316406 404.765625 409.960938 407.335938 C 410.605469 409.90625 411.3125 412.457031 412.082031 414.996094 C 412.851562 417.53125 413.679688 420.042969 414.574219 422.539062 C 415.464844 425.035156 416.417969 427.503906 417.433594 429.953125 C 418.445312 432.402344 419.519531 434.820312 420.652344 437.21875 C 421.785156 439.613281 422.976562 441.976562 424.226562 444.316406 C 425.476562 446.652344 426.78125 448.957031 428.140625 451.226562 C 429.503906 453.5 430.921875 455.738281 432.394531 457.941406 C 433.867188 460.144531 435.390625 462.308594 436.96875 464.4375 C 438.546875 466.566406 440.175781 468.652344 441.855469 470.703125 C 443.539062 472.75 445.269531 474.753906 447.046875 476.71875 C 448.828125 478.683594 450.652344 480.601562 452.527344 482.472656 C 454.398438 484.347656 456.316406 486.171875 458.28125 487.953125 C 460.246094 489.730469 462.25 491.460938 464.296875 493.144531 C 466.347656 494.824219 468.433594 496.453125 470.5625 498.03125 C 472.691406 499.609375 474.855469 501.136719 477.058594 502.605469 C 479.261719 504.078125 481.5 505.496094 483.773438 506.859375 C 486.042969 508.21875 488.347656 509.527344 490.683594 510.773438 C 493.023438 512.023438 495.386719 513.214844 497.78125 514.347656 C 500.179688 515.480469 502.597656 516.554688 505.046875 517.566406 C 507.496094 518.582031 509.964844 519.535156 512.460938 520.425781 C 514.957031 521.320312 517.46875 522.148438 520.003906 522.917969 C 522.542969 523.6875 525.09375 524.394531 527.664062 525.039062 C 530.234375 525.683594 532.816406 526.261719 535.417969 526.78125 C 538.015625 527.296875 540.625 527.75 543.246094 528.136719 C 545.867188 528.527344 548.496094 528.851562 551.132812 529.109375 C 553.769531 529.371094 556.410156 529.566406 559.054688 529.695312 C 561.703125 529.824219 564.351562 529.890625 567 529.890625 C 569.648438 529.890625 572.296875 529.824219 574.945312 529.695312 C 577.589844 529.566406 580.230469 529.371094 582.867188 529.109375 C 585.503906 528.851562 588.132812 528.527344 590.753906 528.136719 C 593.375 527.75 595.984375 527.296875 598.582031 526.78125 C 601.183594 526.261719 603.765625 525.683594 606.335938 525.039062 C 608.90625 524.394531 611.457031 523.6875 613.996094 522.917969 C 616.53125 522.148438 619.042969 521.320312 621.539062 520.425781 C 624.035156 519.535156 626.503906 518.582031 628.953125 517.566406 C 631.398438 516.554688 633.820312 515.480469 636.21875 514.347656 C 638.613281 513.214844 640.976562 512.023438 643.3125 510.773438 C 645.652344 509.527344 647.957031 508.21875 650.226562 506.859375 C 652.5 505.496094 654.738281 504.078125 656.941406 502.605469 C 659.144531 501.136719 661.308594 499.609375 663.4375 498.03125 C 665.566406 496.453125 667.652344 494.824219 669.703125 493.144531 C 671.75 491.460938 673.753906 489.730469 675.71875 487.953125 C 677.683594 486.171875 679.601562 484.347656 681.472656 482.472656 C 683.347656 480.601562 685.171875 478.683594 686.953125 476.71875 C 688.730469 474.753906 690.460938 472.75 692.144531 470.703125 C 693.824219 468.652344 695.453125 466.566406 697.03125 464.4375 C 698.609375 462.308594 700.132812 460.144531 701.605469 457.941406 C 703.078125 455.738281 704.496094 453.5 705.859375 451.226562 C 707.21875 448.957031 708.523438 446.652344 709.773438 444.316406 C 711.023438 441.976562 712.214844 439.613281 713.347656 437.21875 C 714.480469 434.820312 715.554688 432.402344 716.566406 429.953125 C 717.582031 427.503906 718.535156 425.035156 719.425781 422.539062 C 720.320312 420.042969 721.148438 417.53125 721.917969 414.996094 C 722.6875 412.457031 723.394531 409.90625 724.039062 407.335938 C 724.683594 404.765625 725.261719 402.183594 725.78125 399.582031 C 726.296875 396.984375 726.75 394.375 727.136719 391.753906 C 727.527344 389.132812 727.851562 386.503906 728.109375 383.867188 C 728.371094 381.230469 728.566406 378.589844 728.695312 375.945312 C 728.824219 373.296875 728.890625 370.648438 728.890625 368 C 728.890625 365.351562 728.824219 362.703125 728.695312 360.058594 C 728.5625 357.410156 728.367188 354.769531 728.109375 352.132812 C 727.847656 349.496094 727.523438 346.867188 727.136719 344.246094 C 726.746094 341.625 726.292969 339.015625 725.777344 336.417969 C 725.257812 333.820312 724.679688 331.234375 724.035156 328.664062 C 723.390625 326.097656 722.683594 323.542969 721.914062 321.007812 C 721.144531 318.472656 720.3125 315.957031 719.421875 313.464844 C 718.527344 310.96875 717.574219 308.5 716.5625 306.050781 C 715.546875 303.601562 714.472656 301.183594 713.339844 298.785156 C 712.207031 296.390625 711.015625 294.027344 709.769531 291.691406 C 708.519531 289.351562 707.214844 287.046875 705.851562 284.777344 C 704.488281 282.503906 703.074219 280.265625 701.601562 278.0625 C 700.128906 275.859375 698.601562 273.695312 697.023438 271.566406 C 695.445312 269.441406 693.816406 267.351562 692.136719 265.304688 C 690.457031 263.253906 688.726562 261.25 686.945312 259.289062 C 685.167969 257.324219 683.339844 255.40625 681.46875 253.53125 C 679.59375 251.660156 677.675781 249.832031 675.714844 248.054688 C 673.75 246.273438 671.746094 244.542969 669.695312 242.863281 C 667.648438 241.183594 665.5625 239.554688 663.433594 237.976562 C 661.304688 236.398438 659.140625 234.871094 656.9375 233.398438 C 654.734375 231.925781 652.496094 230.511719 650.222656 229.148438 C 647.953125 227.785156 645.648438 226.480469 643.308594 225.230469 C 640.972656 223.984375 638.609375 222.792969 636.214844 221.660156 C 633.820312 220.527344 631.398438 219.453125 628.949219 218.4375 C 626.5 217.425781 624.03125 216.472656 621.535156 215.578125 C 619.042969 214.6875 616.527344 213.855469 613.992188 213.085938 C 611.457031 212.316406 608.902344 211.609375 606.335938 210.964844 C 603.765625 210.320312 601.179688 209.742188 598.582031 209.222656 C 595.984375 208.707031 593.375 208.253906 590.753906 207.863281 C 588.132812 207.476562 585.503906 207.152344 582.867188 206.890625 C 580.230469 206.632812 577.589844 206.4375 574.941406 206.304688 C 572.296875 206.175781 569.648438 206.109375 567 206.109375 Z M 665.246094 438.066406 C 664.207031 439.800781 663.085938 441.480469 661.882812 443.109375 C 660.683594 444.738281 659.410156 446.304688 658.058594 447.808594 C 656.710938 449.316406 655.292969 450.757812 653.808594 452.128906 C 652.324219 453.503906 650.777344 454.800781 649.171875 456.027344 C 647.5625 457.253906 645.898438 458.402344 644.183594 459.472656 C 642.46875 460.539062 640.703125 461.527344 638.894531 462.429688 C 637.085938 463.332031 635.238281 464.148438 633.351562 464.875 C 631.464844 465.601562 629.546875 466.238281 627.597656 466.785156 C 625.652344 467.332031 623.683594 467.785156 621.695312 468.144531 C 619.703125 468.503906 617.703125 468.769531 615.6875 468.941406 C 613.671875 469.113281 611.652344 469.1875 609.632812 469.167969 C 607.609375 469.148438 605.59375 469.03125 603.582031 468.820312 C 601.570312 468.609375 599.574219 468.304688 597.589844 467.902344 C 595.609375 467.503906 593.648438 467.011719 591.714844 466.425781 C 589.777344 465.839844 587.875 465.167969 586.003906 464.402344 C 584.128906 463.636719 582.300781 462.785156 580.507812 461.847656 C 569.097656 455.882812 558.203125 449.09375 547.824219 441.480469 C 537.441406 433.863281 527.695312 425.507812 518.585938 416.414062 C 509.46875 407.277344 501.097656 397.5 493.476562 387.085938 C 485.851562 376.671875 479.058594 365.742188 473.105469 354.289062 C 472.171875 352.5 471.324219 350.671875 470.566406 348.800781 C 469.804688 346.929688 469.132812 345.03125 468.554688 343.097656 C 467.972656 341.164062 467.488281 339.207031 467.089844 337.230469 C 466.695312 335.25 466.394531 333.257812 466.1875 331.25 C 465.980469 329.242188 465.871094 327.226562 465.855469 325.210938 C 465.835938 323.191406 465.917969 321.175781 466.089844 319.167969 C 466.265625 317.15625 466.53125 315.160156 466.894531 313.171875 C 467.257812 311.1875 467.714844 309.222656 468.261719 307.28125 C 468.8125 305.339844 469.449219 303.425781 470.179688 301.546875 C 470.910156 299.664062 471.726562 297.820312 472.628906 296.015625 C 473.535156 294.210938 474.519531 292.453125 475.589844 290.742188 C 476.660156 289.03125 477.808594 287.375 479.035156 285.769531 C 480.261719 284.167969 481.558594 282.628906 482.933594 281.148438 C 484.304688 279.667969 485.742188 278.253906 487.25 276.910156 C 488.753906 275.566406 490.320312 274.296875 491.945312 273.101562 C 493.574219 271.90625 495.25 270.789062 496.984375 269.753906 C 497.558594 269.410156 498.148438 269.09375 498.753906 268.804688 C 499.355469 268.519531 499.976562 268.261719 500.605469 268.035156 C 501.234375 267.808594 501.875 267.617188 502.527344 267.453125 C 503.175781 267.289062 503.832031 267.15625 504.492188 267.058594 C 505.15625 266.960938 505.820312 266.894531 506.492188 266.859375 C 507.160156 266.824219 507.828125 266.824219 508.496094 266.855469 C 509.167969 266.890625 509.832031 266.953125 510.496094 267.050781 C 511.160156 267.148438 511.816406 267.277344 512.464844 267.4375 C 513.113281 267.601562 513.753906 267.792969 514.386719 268.019531 C 515.015625 268.242188 515.636719 268.496094 516.242188 268.78125 C 516.847656 269.066406 517.4375 269.382812 518.015625 269.726562 C 518.589844 270.066406 519.148438 270.4375 519.683594 270.835938 C 520.222656 271.234375 520.742188 271.65625 521.238281 272.105469 C 521.738281 272.554688 522.210938 273.027344 522.664062 273.519531 C 523.113281 274.015625 523.539062 274.53125 523.941406 275.070312 C 524.339844 275.605469 524.714844 276.160156 525.058594 276.734375 L 538.214844 298.742188 C 538.605469 299.40625 538.960938 300.09375 539.277344 300.800781 C 539.589844 301.507812 539.867188 302.230469 540.097656 302.96875 C 540.332031 303.703125 540.523438 304.453125 540.675781 305.210938 C 540.824219 305.96875 540.929688 306.734375 540.992188 307.507812 C 541.058594 308.277344 541.078125 309.050781 541.050781 309.824219 C 541.027344 310.597656 540.960938 311.367188 540.851562 312.132812 C 540.738281 312.898438 540.585938 313.652344 540.390625 314.402344 C 540.195312 315.152344 539.957031 315.886719 539.679688 316.605469 C 539.398438 317.328125 539.082031 318.03125 538.722656 318.71875 C 538.363281 319.402344 537.96875 320.066406 537.535156 320.707031 C 537.101562 321.347656 536.632812 321.964844 536.132812 322.550781 C 535.628906 323.140625 535.097656 323.699219 534.53125 324.226562 C 533.964844 324.753906 533.371094 325.25 532.75 325.710938 C 532.128906 326.171875 531.484375 326.597656 530.816406 326.984375 C 530.144531 327.371094 529.457031 327.722656 528.75 328.035156 C 528.039062 328.34375 527.316406 328.613281 526.578125 328.84375 C 526.070312 328.992188 525.574219 329.167969 525.089844 329.371094 C 524.605469 329.574219 524.132812 329.804688 523.671875 330.0625 C 523.210938 330.320312 522.769531 330.605469 522.339844 330.914062 C 521.914062 331.222656 521.503906 331.554688 521.113281 331.90625 C 520.722656 332.261719 520.355469 332.636719 520.007812 333.035156 C 519.660156 333.433594 519.339844 333.847656 519.039062 334.28125 C 518.738281 334.714844 518.464844 335.164062 518.214844 335.628906 C 517.964844 336.09375 517.746094 336.570312 517.550781 337.058594 C 517.355469 337.550781 517.191406 338.050781 517.050781 338.558594 C 516.914062 339.066406 516.804688 339.582031 516.726562 340.101562 C 516.648438 340.625 516.597656 341.148438 516.578125 341.675781 C 516.558594 342.203125 516.570312 342.726562 516.609375 343.253906 C 516.648438 343.777344 516.71875 344.300781 516.820312 344.816406 C 516.917969 345.335938 517.046875 345.847656 517.207031 346.347656 C 517.363281 346.851562 517.550781 347.34375 517.761719 347.828125 C 517.976562 348.308594 518.214844 348.777344 518.484375 349.230469 C 526.773438 363.03125 536.605469 375.628906 547.976562 387.023438 C 559.382812 398.441406 572.015625 408.289062 585.871094 416.566406 C 586.75 417.101562 587.679688 417.535156 588.65625 417.859375 C 589.632812 418.183594 590.636719 418.394531 591.660156 418.488281 C 592.6875 418.585938 593.710938 418.566406 594.730469 418.429688 C 595.75 418.292969 596.746094 418.042969 597.707031 417.679688 C 598.777344 417.28125 599.78125 416.757812 600.722656 416.109375 C 601.660156 415.464844 602.507812 414.710938 603.261719 413.855469 C 604.015625 413 604.65625 412.066406 605.179688 411.050781 C 605.703125 410.039062 606.097656 408.976562 606.359375 407.867188 C 606.605469 407.144531 606.886719 406.441406 607.210938 405.75 C 607.535156 405.0625 607.894531 404.390625 608.292969 403.742188 C 608.691406 403.09375 609.125 402.46875 609.589844 401.867188 C 610.058594 401.265625 610.554688 400.695312 611.085938 400.148438 C 611.617188 399.601562 612.175781 399.089844 612.765625 398.605469 C 613.355469 398.121094 613.964844 397.671875 614.605469 397.257812 C 615.242188 396.839844 615.902344 396.460938 616.582031 396.121094 C 617.261719 395.777344 617.957031 395.476562 618.671875 395.210938 C 619.386719 394.945312 620.113281 394.722656 620.851562 394.539062 C 621.589844 394.355469 622.335938 394.210938 623.089844 394.113281 C 623.847656 394.011719 624.601562 393.953125 625.363281 393.9375 C 626.125 393.917969 626.886719 393.945312 627.644531 394.011719 C 628.402344 394.082031 629.152344 394.191406 629.898438 394.34375 C 630.644531 394.492188 631.382812 394.6875 632.105469 394.917969 C 632.832031 395.152344 633.539062 395.425781 634.234375 395.738281 C 634.929688 396.050781 635.601562 396.398438 636.257812 396.785156 L 658.265625 409.941406 C 658.839844 410.289062 659.394531 410.664062 659.929688 411.066406 C 660.464844 411.46875 660.980469 411.894531 661.476562 412.347656 C 661.96875 412.800781 662.441406 413.277344 662.886719 413.777344 C 663.335938 414.273438 663.757812 414.792969 664.15625 415.335938 C 664.554688 415.875 664.921875 416.433594 665.265625 417.007812 C 665.609375 417.585938 665.921875 418.175781 666.207031 418.785156 C 666.492188 419.390625 666.746094 420.011719 666.96875 420.644531 C 667.195312 421.273438 667.386719 421.914062 667.546875 422.566406 C 667.710938 423.21875 667.839844 423.875 667.9375 424.539062 C 668.035156 425.199219 668.097656 425.867188 668.128906 426.535156 C 668.164062 427.207031 668.164062 427.875 668.128906 428.546875 C 668.09375 429.214844 668.03125 429.882812 667.929688 430.546875 C 667.832031 431.207031 667.703125 431.863281 667.539062 432.515625 C 667.378906 433.164062 667.183594 433.808594 666.957031 434.4375 C 666.730469 435.070312 666.476562 435.6875 666.191406 436.296875 C 665.90625 436.902344 665.589844 437.492188 665.246094 438.066406 Z M 665.246094 438.066406 " fill-opacity="1" fill-rule="nonzero"/></g></svg>